{"asset":{"version":"2.0","generator":"Blockbench 4.12.6 glTF exporter"},"scenes":[{"nodes":[5],"name":"blockbench_export"}],"scene":0,"nodes":[{"rotation":[-0.7071067811865475,0,0,0.7071067811865476],"translation":[-6.4051328343759035e-18,2.7755575615628914e-17,-0.34375],"name":"Cylinder","mesh":0},{"rotation":[-0.8767267557075077,0,0,0.48098876891938774],"translation":[0,-0.1875,0.3125],"name":"Grip","mesh":1},{"translation":[0,0,-0.3125],"name":"Body","mesh":2},{"name":"bone","children":[1,2]},{"rotation":[0.17364817766693033,0,0,0.984807753012208],"translation":[0,-0.4375,-0.5625],"name":"cube","mesh":3},{"children":[0,3,4]}],"bufferViews":[{"buffer":0,"byteOffset":0,"byteLength":1440,"target":34962,"byteStride":12},{"buffer":0,"byteOffset":1440,"byteLength":1440,"target":34962,"byteStride":12},{"buffer":0,"byteOffset":2880,"byteLength":960,"target":34962,"byteStride":8},{"buffer":0,"byteOffset":3840,"byteLength":288,"target":34963},{"buffer":0,"byteOffset":4128,"byteLength":1152,"target":34962,"byteStride":12},{"buffer":0,"byteOffset":5280,"byteLength":1152,"target":34962,"byteStride":12},{"buffer":0,"byteOffset":6432,"byteLength":768,"target":34962,"byteStride":8},{"buffer":0,"byteOffset":7200,"byteLength":264,"target":34963},{"buffer":0,"byteOffset":7464,"byteLength":1152,"target":34962,"byteStride":12},{"buffer":0,"byteOffset":8616,"byteLength":1152,"target":34962,"byteStride":12},{"buffer":0,"byteOffset":9768,"byteLength":768,"target":34962,"byteStride":8},{"buffer":0,"byteOffset":10536,"byteLength":264,"target":34963},{"buffer":0,"byteOffset":10800,"byteLength":288,"target":34962,"byteStride":12},{"buffer":0,"byteOffset":11088,"byteLength":288,"target":34962,"byteStride":12},{"buffer":0,"byteOffset":11376,"byteLength":192,"target":34962,"byteStride":8},{"buffer":0,"byteOffset":11568,"byteLength":72,"target":34963}],"buffers":[{"byteLength":11640,"uri":"data:application/octet-stream;base64,"}],"accessors":[{"bufferView":0,"componentType":5126,"count":120,"max":[0.0625,0.6875,0.0625],"min":[-0.0625,-0.6875,-0.0625],"type":"VEC3"},{"bufferView":1,"componentType":5126,"count":120,"max":[1,1,1],"min":[-1,-1,-1],"type":"VEC3"},{"bufferView":2,"componentType":5126,"count":120,"max":[0.5176382064819336,0.5176382064819336],"min":[0,0],"type":"VEC2"},{"bufferView":3,"componentType":5123,"count":144,"max":[119],"min":[0],"type":"SCALAR"},{"bufferView":4,"componentType":5126,"count":96,"max":[0.09375,0.09375,0.25],"min":[-0.09375,-0.09375,-0.25],"type":"VEC3"},{"bufferView":5,"componentType":5126,"count":96,"max":[1,1,1],"min":[-1,-1,-1],"type":"VEC3"},{"bufferView":6,"componentType":5126,"count":96,"max":[0.875,0.875],"min":[0,0],"type":"VEC2"},{"bufferView":7,"componentType":5123,"count":132,"max":[95],"min":[0],"type":"SCALAR"},{"bufferView":8,"componentType":5126,"count":96,"max":[0.09375,0.09375,0.6875],"min":[-0.09375,-0.09375,-0.6875],"type":"VEC3"},{"bufferView":9,"componentType":5126,"count":96,"max":[1,1,1],"min":[-1,-1,-1],"type":"VEC3"},{"bufferView":10,"componentType":5126,"count":96,"max":[0.875,0.875],"min":[0,0],"type":"VEC2"},{"bufferView":11,"componentType":5123,"count":132,"max":[95],"min":[0],"type":"SCALAR"},{"bufferView":12,"componentType":5126,"count":24,"max":[0.0625,0.5,0.1875],"min":[-0.0625,0,-0.0625],"type":"VEC3"},{"bufferView":13,"componentType":5126,"count":24,"max":[1,1,1],"min":[-1,-1,-1],"type":"VEC3"},{"bufferView":14,"componentType":5126,"count":24,"max":[0.25,0.5],"min":[0,0],"type":"VEC2"},{"bufferView":15,"componentType":5123,"count":36,"max":[23],"min":[0],"type":"SCALAR"}],"materials":[{"pbrMetallicRoughness":{"metallicFactor":0,"roughnessFactor":1},"alphaMode":"MASK","alphaCutoff":0.05,"doubleSided":true},{"pbrMetallicRoughness":{"metallicFactor":0,"roughnessFactor":1},"alphaMode":"MASK","alphaCutoff":0.05,"doubleSided":true},{"pbrMetallicRoughness":{"metallicFactor":0,"roughnessFactor":1},"alphaMode":"MASK","alphaCutoff":0.05,"doubleSided":true}],"meshes":[{"primitives":[{"mode":4,"attributes":{"POSITION":0,"NORMAL":1,"TEXCOORD_0":2},"indices":3,"material":0}]},{"primitives":[{"mode":4,"attributes":{"POSITION":4,"NORMAL":5,"TEXCOORD_0":6},"indices":7,"material":1}]},{"primitives":[{"mode":4,"attributes":{"POSITION":8,"NORMAL":9,"TEXCOORD_0":10},"indices":11,"material":1}]},{"primitives":[{"mode":4,"attributes":{"POSITION":12,"NORMAL":13,"TEXCOORD_0":14},"indices":15,"material":2}]}]}